HIERARCHY
ROOT Hips
{
	OFFSET 0.000000 0.000000 0.000000
	CHANNELS 6 Xposition Yposition Zposition Xrotation Yrotation Zrotation
	JOINT LeftUpLeg_virtual
	{
		OFFSET 0.000000 0.000000 0.000000
		CHANNELS 3 Xrotation Yrotation Zrotation
		JOINT LeftUpLeg
		{
			OFFSET 13.026900 -6.336304 -1.092800
			CHANNELS 3 Xrotation Yrotation Zrotation
			JOINT LeftLeg
			{
				OFFSET 0.524474 -46.096886 9.782700
				CHANNELS 3 Xrotation Yrotation Zrotation
				JOINT LeftFoot
				{
					OFFSET -0.524474 -53.427422 -12.948200
					CHANNELS 3 Xrotation Yrotation Zrotation
					JOINT LeftToeBase
					{
						OFFSET 0.192200 -14.009700 16.364100
						CHANNELS 3 Xrotation Yrotation Zrotation
						JOINT LeftToe_End
						{
							OFFSET -1.784700 -0.561700 9.474800
							CHANNELS 3 Xrotation Yrotation Zrotation
							End Site
							{
								OFFSET 0 0 0
							}
						}
					}
				}
			}
		}
	}
	JOINT RightUpLeg_virtual
	{
		OFFSET 0.000000 0.000000 0.000000
		CHANNELS 3 Xrotation Yrotation Zrotation
		JOINT RightUpLeg
		{
			OFFSET -12.883000 -6.336304 -1.092800
			CHANNELS 3 Xrotation Yrotation Zrotation
			JOINT RightLeg
			{
				OFFSET -0.524587 -46.096825 9.782800
				CHANNELS 3 Xrotation Yrotation Zrotation
				JOINT RightFoot
				{
					OFFSET 0.524587 -53.427383 -12.948300
					CHANNELS 3 Xrotation Yrotation Zrotation
					JOINT RightToeBase
					{
						OFFSET -0.192200 -14.009700 16.364100
						CHANNELS 3 Xrotation Yrotation Zrotation
						JOINT RightToe_End
						{
							OFFSET 1.784700 -0.561700 9.474800
							CHANNELS 3 Xrotation Yrotation Zrotation
							End Site
							{
								OFFSET 0 0 0
							}
						}
					}
				}
			}
		}
	}
	JOINT Spine_virtual
	{
		OFFSET 0.000000 0.000000 0.000000
		CHANNELS 3 Xrotation Yrotation Zrotation
		JOINT Spine
		{
			OFFSET 0.072000 7.257294 -0.789700
			CHANNELS 3 Xrotation Yrotation Zrotation
			JOINT Spine1
			{
				OFFSET 0.000000 12.508769 -0.658067
				CHANNELS 3 Xrotation Yrotation Zrotation
				JOINT Spine1_split
				{
					OFFSET 0.000000 12.508769 -0.658067
					CHANNELS 3 Xrotation Yrotation Zrotation
					JOINT Spine2
					{
						OFFSET 0.000000 12.508769 -0.658067
						CHANNELS 3 Xrotation Yrotation Zrotation
						JOINT Neck_virtual
						{
							OFFSET 0.000000 0.000000 0.000000
							CHANNELS 3 Xrotation Yrotation Zrotation
							JOINT Neck
							{
								OFFSET 0.000000 14.033295 7.520400
								CHANNELS 3 Xrotation Yrotation Zrotation
								JOINT Head
								{
									OFFSET 0.000000 8.198502 5.703100
									CHANNELS 3 Xrotation Yrotation Zrotation
									JOINT HeadTop_End
									{
										OFFSET 0.000000 17.760803 13.332701
										CHANNELS 3 Xrotation Yrotation Zrotation
										End Site
										{
											OFFSET 0 0 0
										}
									}
								}
							}
						}
						JOINT LeftShoulder_virtual
						{
							OFFSET 0.000000 0.000000 0.000000
							CHANNELS 3 Xrotation Yrotation Zrotation
							JOINT LeftShoulder
							{
								OFFSET 6.292450 5.785301 -0.669000
								CHANNELS 3 Xrotation Yrotation Zrotation
								JOINT LeftShoulder_split
								{
									OFFSET 6.292450 5.785301 -0.669000
									CHANNELS 3 Xrotation Yrotation Zrotation
									JOINT LeftArm
									{
										OFFSET 13.907140 -6.093903 1.965100
										CHANNELS 3 Xrotation Yrotation Zrotation
										JOINT LeftForeArm
										{
											OFFSET 34.140198 0.000000 0.000000
											CHANNELS 3 Xrotation Yrotation Zrotation
											JOINT LeftHand
											{
												OFFSET 40.960209 0.000000 0.000000
												CHANNELS 3 Xrotation Yrotation Zrotation
												End Site
												{
													OFFSET 0 0 0
												}
											}
										}
									}
								}
							}
						}
						JOINT RightShoulder_virtual
						{
							OFFSET 0.000000 0.000000 0.000000
							CHANNELS 3 Xrotation Yrotation Zrotation
							JOINT RightShoulder
							{
								OFFSET -6.292450 5.785301 -0.669000
								CHANNELS 3 Xrotation Yrotation Zrotation
								JOINT RightShoulder_split
								{
									OFFSET -6.292450 5.785301 -0.669000
									CHANNELS 3 Xrotation Yrotation Zrotation
									JOINT RightArm
									{
										OFFSET -13.907140 -6.093903 1.965100
										CHANNELS 3 Xrotation Yrotation Zrotation
										JOINT RightForeArm
										{
											OFFSET -34.140198 0.000000 0.000000
											CHANNELS 3 Xrotation Yrotation Zrotation
											JOINT RightHand
											{
												OFFSET -40.960209 0.000000 0.000000
												CHANNELS 3 Xrotation Yrotation Zrotation
												End Site
												{
													OFFSET 0 0 0
												}
											}
										}
									}
								}
							}
						}
					}
				}
			}
		}
	}
}
MOTION
Frames: 6
Frame Time: 0.03333333
16.947178 108.324364 -7.125816 0.000000 0.000000 0.000000 9.656745 -56.537082 18.072301 -24.693299 28.318716 27.810917 24.995924 -11.051578 -4.305502 6.363761 -5.353612 -7.157801 -3.917462 -4.152453 -0.655996 0.000000 0.000000 0.000000 8.911832 -58.106236 17.953113 -30.981714 -18.920269 -24.887162 35.522673 10.018025 -0.569122 -12.754028 -1.746269 25.411261 3.942266 0.378493 -9.110410 0.000000 0.000000 0.000000 9.787726 -52.049860 18.999988 5.555640 -1.443384 1.525036 5.285150 -2.423606 -5.593985 0.108959 -1.265010 0.243890 0.000000 0.000000 0.000000 10.174044 -2.773338 -2.473849 -7.834243 36.740154 34.613944 -145.186995 82.567288 159.088329 0.000000 0.000000 0.000000 10.061478 -6.601777 -0.308437 -4.338243 5.458931 4.936727 -0.032403 -9.878425 -1.229166 -26.699589 13.259007 -61.940117 -14.781924 -55.586292 -9.532244 0.000000 0.000000 0.000000 3.024769 -9.345345 -2.280153 6.105507 13.167179 -15.125561 -16.792720 2.953326 -7.188900 -22.085816 -14.105648 56.707004 3.562754 36.260552 13.273878 0.000000 0.000000 0.000000 
16.750875 108.255325 -8.305866 0.000000 0.000000 0.000000 11.047450 -58.250695 19.638573 -26.760965 25.453555 29.508316 25.284003 -12.225945 -4.391589 9.632281 -6.514248 -6.476381 -4.675088 -3.929878 -1.297192 0.000000 0.000000 0.000000 10.308216 -59.829971 19.599885 -32.257826 -16.965509 -23.982923 36.610104 10.285670 -0.397952 -12.092876 -0.903810 24.275179 3.165346 0.107850 -8.491661 0.000000 0.000000 0.000000 10.815078 -53.743074 20.513794 5.477298 -1.034196 0.838203 4.710221 -1.906719 -6.095711 0.148328 -1.282067 0.241063 0.000000 0.000000 0.000000 9.907264 -2.354694 -2.745883 -9.737908 37.543699 36.996498 -153.791285 83.905486 167.583978 0.000000 0.000000 0.000000 9.511970 -6.122523 -0.477567 -4.649246 7.329704 5.006654 0.810719 -11.932387 -1.323811 -27.837163 14.458834 -62.491327 -15.396023 -58.824943 -9.403162 0.000000 0.000000 0.000000 1.953362 -9.232299 -2.653445 6.205148 12.602120 -15.140890 -17.454974 2.377162 -8.161577 -21.598040 -13.255036 57.932367 5.413441 34.721086 11.890652 0.000000 0.000000 0.000000 
16.338268 108.427345 -9.356960 0.000000 0.000000 0.000000 12.383007 -59.406731 21.187018 -28.794585 22.698269 30.429247 25.186036 -13.035524 -4.283746 12.281472 -7.162036 -5.613574 -4.385399 -3.667853 -1.847940 0.000000 0.000000 0.000000 11.832545 -61.181419 21.444794 -32.770670 -14.816721 -22.671433 37.559415 10.412858 -0.390336 -11.857576 -0.348972 23.021600 2.505047 -0.185984 -7.531920 0.000000 0.000000 0.000000 11.715432 -54.921961 21.880909 5.134223 -0.586637 0.168871 4.244166 -1.512227 -6.588102 0.187703 -1.313215 0.246734 0.000000 0.000000 0.000000 9.740881 -2.065429 -2.988468 -11.540706 38.347581 38.831914 -163.881660 85.195436 177.510702 0.000000 0.000000 0.000000 9.030490 -5.762786 -0.678403 -4.984745 8.895601 5.349585 1.810325 -13.701271 -1.537728 -28.745100 16.263234 -62.876481 -16.231345 -62.499414 -9.606474 0.000000 0.000000 0.000000 0.973627 -9.224041 -3.051002 6.251879 11.697130 -15.045158 -18.354873 1.600255 -8.883771 -20.758664 -12.135807 59.061547 7.235044 33.462060 10.505213 0.000000 0.000000 0.000000 
15.684199 108.720261 -10.386692 0.000000 0.000000 0.000000 13.514273 -60.200632 22.607202 -30.500971 20.301882 30.497283 24.619512 -13.413207 -4.038409 13.932355 -7.215016 -4.678350 -3.260633 -3.405158 -2.260122 0.000000 0.000000 0.000000 13.405485 -62.295382 23.375839 -32.538598 -12.699352 -21.136808 38.033318 10.364875 -0.488547 -12.691059 -0.075627 21.237713 3.088538 -0.498816 -6.251512 0.000000 0.000000 0.000000 12.410505 -55.732295 23.052981 4.550725 -0.069624 -0.400583 3.914600 -1.215721 -7.108130 0.230633 -1.367489 0.265560 0.000000 0.000000 0.000000 9.672324 -1.882465 -3.223911 -13.302769 39.154527 40.160402 -177.302435 86.463098 -169.266335 0.000000 0.000000 0.000000 8.629595 -5.492021 -0.986641 -5.333594 10.090507 5.837189 2.855172 -15.108524 -1.798659 -29.275919 18.395448 -62.973873 -17.411161 -66.337946 -10.270926 0.000000 0.000000 0.000000 0.133678 -9.269173 -3.502986 6.221691 10.480229 -14.917852 -19.471191 0.796282 -9.450192 -19.691814 -10.821969 59.904174 9.005661 32.363362 9.148868 0.000000 0.000000 0.000000 
14.794965 109.014847 -11.292797 0.000000 0.000000 0.000000 14.378574 -60.908963 23.863685 -31.899715 18.357187 29.920118 23.920200 -13.435962 -3.660437 14.563246 -6.745264 -3.839316 -1.710807 -3.150003 -2.557070 0.000000 0.000000 0.000000 14.841450 -63.153732 25.208676 -31.759895 -10.768951 -19.709650 38.215762 10.266583 -0.656344 -14.251465 0.103219 19.248790 4.210870 -0.713581 -4.787222 0.000000 0.000000 0.000000 12.784339 -56.220725 23.983132 3.818721 0.564668 -0.792831 3.704555 -0.968353 -7.680485 0.231001 -1.444201 0.303452 0.000000 0.000000 0.000000 9.693565 -1.759633 -3.477743 -15.066940 39.914703 41.062394 159.510667 87.737475 -146.302871 0.000000 0.000000 0.000000 8.265693 -5.252732 -1.441076 -5.668092 10.844398 6.351670 3.623403 -16.130419 -2.026100 -29.265793 20.596295 -62.813650 -18.992031 -70.126413 -11.472974 0.000000 0.000000 0.000000 -0.570084 -9.302972 -4.018284 6.100861 9.088022 -14.811455 -20.619590 0.159681 -9.929097 -18.645723 -9.470698 60.382793 10.659895 31.132651 7.897902 0.000000 0.000000 0.000000 
13.686253 109.224373 -12.085979 0.000000 0.000000 0.000000 14.960904 -61.762785 24.933537 -33.123539 16.707034 28.969349 23.652740 -13.331930 -3.127573 14.517632 -5.956622 -3.324313 -0.175123 -2.912058 -2.775260 0.000000 0.000000 0.000000 15.962473 -63.938166 26.758868 -30.820648 -9.212709 -18.699601 38.427047 10.321795 -0.861716 -15.463427 0.334567 17.939564 4.585427 -0.789898 -3.390915 0.000000 0.000000 0.000000 12.805720 -56.431112 24.581024 3.049968 1.333831 -1.007681 3.593603 -0.718884 -8.276991 0.207473 -1.530142 0.328355 0.000000 0.000000 0.000000 9.779028 -1.654611 -3.723586 -16.826898 40.510050 41.569358 98.968055 88.413780 -86.031908 0.000000 0.000000 0.000000 7.881192 -4.979574 -2.033141 -5.959046 11.224696 6.768574 3.961187 -16.961286 -2.269068 -28.708716 22.719251 -62.497044 -21.074672 -73.725963 -13.310232 0.000000 0.000000 0.000000 -1.122719 -9.275073 -4.562252 5.892321 7.582804 -14.741169 -21.779633 -0.200854 -10.222873 -17.808974 -8.292982 60.545010 12.078517 29.247334 6.875690 0.000000 0.000000 0.000000 
